<?xml version="1.0" encoding="UTF-8"?>
<svg width="28px" height="28px" viewBox="0 0 28 28" version="1.1" xmlns="http://www.w3.org/2000/svg" xmlns:xlink="http://www.w3.org/1999/xlink">
    <title>相机组</title>
    <g id="编辑资料" stroke="none" stroke-width="1" fill="none" fill-rule="evenodd">
        <g id="个人相册-审核未通过1" transform="translate(-208.000000, -166.000000)">
            <g id="相机图标" transform="translate(208.000000, 166.000000)">
                <circle id="椭圆形" stroke="#FFFFFF" fill="#000000" cx="14" cy="14" r="13.5"></circle>
                <path d="M16.4517932,7.45858474 C16.9945251,7.45858474 17.4739372,7.81218353 17.6341982,8.33071452 L18.0203185,9.58012483 L19.1270552,9.58012483 C20.2010849,9.58012483 21.0718003,10.4508402 21.0718003,11.5248699 L21.0718003,18.5966702 C21.0718003,19.6706999 20.2010849,20.5414153 19.1270552,20.5414153 L8.8729448,20.5414153 C7.79891513,20.5414153 6.92819971,19.6706999 6.92819971,18.5966702 L6.92819971,11.5248699 C6.92819971,10.4508402 7.79891512,9.58012483 8.8729448,9.58012483 L9.97968154,9.58012483 L10.3658018,8.33071452 C10.5260628,7.81218353 11.0054749,7.45858474 11.5482068,7.45858474 L16.4517932,7.45858474 Z M14,11.6486602 C12.3108815,11.6486602 10.9414802,13.0180615 10.9414802,14.70718 C10.9414802,16.3962986 12.3108815,17.7656998 14,17.7656998 C15.6891185,17.7656998 17.0585198,16.3962986 17.0585198,14.70718 C17.0585198,13.0180615 15.6891185,11.6486602 14,11.6486602 Z M14,15.9471518 C14.6848175,15.9471518 15.2399718,15.3919975 15.2399718,14.70718 C15.2399718,14.0223625 14.6848175,13.4672082 14,13.4672082 C13.3151825,13.4672082 12.7600282,14.0223625 12.7600282,14.70718 C12.7600282,15.3919975 13.3151825,15.9471518 14,15.9471518 Z" id="形状" fill="#FFFFFF" fill-rule="nonzero"></path>
                <path d="M18.1208029,8.31787791 C18.7848385,8.56456474 19.5147109,8.56852453 20.1813841,8.32905721 L20.2125071,8.31787791 L20.2125071,8.31787791 C19.9519934,8.98736154 19.9507243,9.72997265 20.2089482,10.4003428 L20.2125071,10.4095822 L20.2125071,10.4095822 C19.5462849,10.1410861 18.8023165,10.1391142 18.1346803,10.4040747 L18.1208029,10.4095822 L18.1208029,10.4095822 L18.1407589,10.3552269 C18.3826495,9.69637796 18.3755528,8.97186221 18.1208029,8.31787791 L18.1208029,8.31787791 L18.1208029,8.31787791 Z" id="矩形" stroke="#FFFFFF" transform="translate(19.166655, 9.363730) rotate(-315.000000) translate(-19.166655, -9.363730) "></path>
            </g>
        </g>
    </g>
</svg>