<?xml version="1.0" encoding="UTF-8"?>
<svg width="24px" height="24px" viewBox="0 0 24 24" version="1.1" xmlns="http://www.w3.org/2000/svg" xmlns:xlink="http://www.w3.org/1999/xlink">
    <title>icon/me/贵族备份 2</title>
    <g id="我的页面改版-----" stroke="none" stroke-width="1" fill="none" fill-rule="evenodd">
        <g id="女版" transform="translate(-26.000000, -864.000000)">
            <g id="模块4备份" transform="translate(12.000000, 837.000000)">
                <g id="我的页列表" transform="translate(0.000000, 12.000000)">
                    <g id="编组-2" transform="translate(14.000000, 15.000000)">
                        <g id="编组" transform="translate(1.416000, 2.509274)">
                            <path d="M19.2284818,11.1323578 C19.3329812,10.5899727 19.3877017,10.0298652 19.3877017,9.45697712 C19.3877017,4.59482694 16.2497732,0 10.584,0 C4.91822676,0 1.78029831,4.59482694 1.78029831,9.45697712 C1.78029831,10.0470552 1.83835194,10.6235741 1.94905928,11.1811339" id="路径" stroke="#313131" stroke-width="1.4" stroke-linecap="round" stroke-linejoin="round"></path>
                            <path d="M19.3877017,17.9849054 C19.3877017,14.0348532 17.973995,10.0848011 13.1118448,10.0848011" id="路径" stroke="#313131" stroke-width="1.4" stroke-linecap="round" stroke-linejoin="round" transform="translate(16.249773, 14.034853) scale(1, -1) translate(-16.249773, -14.034853) "></path>
                            <path d="M20.3227449,6.2745301 L20.3227449,6.2745301 L20.3227449,6.2745301 C20.7139024,8.93854371 20.9759167,10.5599244 21.1087876,11.1386721 C21.3080939,12.0067938 20.9938617,12.3862397 20.3227449,12.5309526 C20.3227449,12.5309526 20.3227449,12.5309526 20.3227449,12.5309526 C19.5897138,12.689016 18.8673391,12.2229127 18.7092757,11.4898817 C18.7068292,11.478536 18.7045283,11.4671594 18.7023736,11.4557548 C18.5957558,10.8914427 18.5424465,10.3387395 18.5424465,9.79764514 C18.5424465,9.21176128 18.6049465,8.49566924 18.7299463,7.64936901 C18.846582,6.85956871 19.5243788,6.2745301 20.3227449,6.2745301 Z" id="矩形备份-2" fill="#313131" transform="translate(19.855223, 9.438920) scale(-1, 1) translate(-19.855223, -9.438920) "></path>
                            <path d="M1.78029831,6.2745301 L1.78029831,6.2745301 L1.78029831,6.2745301 C2.1714559,8.93854371 2.43347013,10.5599244 2.56634102,11.1386721 C2.76564734,12.0067938 2.45141513,12.3862397 1.78029831,12.5309526 C1.78029831,12.5309526 1.78029831,12.5309526 1.78029831,12.5309526 C1.0472673,12.689016 0.324892535,12.2229127 0.166829109,11.4898817 C0.164382644,11.478536 0.162081756,11.4671594 0.159927012,11.4557548 C0.053309235,10.8914427 0,10.3387395 0,9.79764514 C0,9.21176128 0.0624999273,8.49566924 0.187499782,7.64936901 C0.304135418,6.85956871 0.981932241,6.2745301 1.78029831,6.2745301 Z" id="矩形备份-3" fill="#313131"></path>
                        </g>
                        <circle id="椭圆形" fill="#313131" cx="14.5601973" cy="19.7700477" r="1.35255028"></circle>
                        <path d="M9.31309015,13.2533336 C9.31309015,14.5405101 10.5160607,15.5839729 12,15.5839729 C13.4839393,15.5839729 14.6869098,14.5405101 14.6869098,13.2533336" id="路径" stroke="#313131" stroke-width="1.4" stroke-linecap="round" stroke-linejoin="round"></path>
                    </g>
                </g>
            </g>
        </g>
    </g>
</svg>