<?xml version="1.0" encoding="UTF-8"?><svg version="1.1" width="13px" height="13px" viewBox="0 0 13.0 13.0" xmlns="http://www.w3.org/2000/svg" xmlns:xlink="http://www.w3.org/1999/xlink"><defs><clipPath id="i0"><path d="M375,0 L375,808 L0,808 L0,0 L375,0 Z"></path></clipPath></defs><g transform="translate(-273.0 -84.0)"><g clip-path="url(#i0)"><g transform="translate(0.0 54.0)"><g transform="translate(90.0 24.0)"><g transform="translate(104.0 5.0)"><g transform="translate(79.0 1.0)"><g transform="translate(2.437500000000001 2.437500000000001)"><g transform="translate(1.625 1.625)"><path d="M1.62716956,0 L4.87283044,0 C5.77149137,-3.8712594e-16 6.5,0.728508626 6.5,1.62716956 L6.5,4.87283044 C6.5,5.77149137 5.77149137,6.5 4.87283044,6.5 L1.62716956,6.5 C0.728508626,6.5 -1.11990381e-16,5.77149137 0,4.87283044 L0,1.62716956 C-3.32098828e-16,0.728508626 0.728508626,-5.69632696e-17 1.62716956,0 Z" stroke="rgba(48, 48, 48, 0.6)" stroke-width="0.928571429" fill="none" stroke-miterlimit="10"></path></g><path d="M0,5.6875 L0,2.4375 C0,1.09130592 1.09130592,0 2.4375,0 L5.6875,0" stroke="rgba(48, 48, 48, 0.6)" stroke-width="0.928571429" fill="none" stroke-linecap="round" stroke-miterlimit="10"></path></g></g></g></g></g></g></g></svg>