<?xml version="1.0" encoding="UTF-8"?>
<svg width="24px" height="24px" viewBox="0 0 24 24" version="1.1" xmlns="http://www.w3.org/2000/svg" xmlns:xlink="http://www.w3.org/1999/xlink">
    <title>icon/me/贵族备份 2</title>
    <g id="我的页面改版-----" stroke="none" stroke-width="1" fill="none" fill-rule="evenodd" stroke-linecap="round" stroke-linejoin="round">
        <g id="女版" transform="translate(-26.000000, -972.000000)" stroke="#313131" stroke-width="1.4">
            <g id="模块4备份" transform="translate(12.000000, 837.000000)">
                <g id="我的页列表备份-2" transform="translate(0.000000, 120.000000)">
                    <g id="编组" transform="translate(14.000000, 15.000000)">
                        <path d="M13.5,3.21018622 L18.862202,6.306055 C19.7904053,6.84195339 20.362202,7.83233444 20.362202,8.90413121 L20.362202,15.0958688 C20.362202,16.1676656 19.7904053,17.1580466 18.862202,17.693945 L13.5,20.7898138 C12.5717968,21.3257122 11.4282032,21.3257122 10.5,20.7898138 L5.13779797,17.693945 C4.20959474,17.1580466 3.63779797,16.1676656 3.63779797,15.0958688 L3.63779797,8.90413121 C3.63779797,7.83233444 4.20959474,6.84195339 5.13779797,6.306055 L10.5,3.21018622 C11.4282032,2.67428783 12.5717968,2.67428783 13.5,3.21018622 Z" id="多边形" transform="translate(12.000000, 12.000000) rotate(-90.000000) translate(-12.000000, -12.000000) "></path>
                        <circle id="椭圆形" cx="12" cy="12" r="3.91271625"></circle>
                    </g>
                </g>
            </g>
        </g>
    </g>
</svg>