<?xml version="1.0" encoding="UTF-8"?>
<svg width="24px" height="24px" viewBox="0 0 24 24" version="1.1" xmlns="http://www.w3.org/2000/svg" xmlns:xlink="http://www.w3.org/1999/xlink">
    <title>icon/me/贵族备份 2</title>
    <defs>
        <path d="M12,21.4921095 C12.5104691,21.489152 13.0326732,21.2207156 13.5666122,20.6867767 L14.8339839,19.419405 C14.9454656,19.3079233 15.083351,19.2521824 15.2476399,19.2521824 L17.0342819,19.2521824 C17.7911844,19.2521824 18.3500601,19.071758 18.710909,18.7109091 C19.0717579,18.3500602 19.2521823,17.7911845 19.2521823,17.034282 L19.2521823,15.2476401 C19.2521823,15.0892186 19.3079232,14.954267 19.419405,14.8427852 L20.6867766,13.5578112 C21.2265831,13.0297397 21.4950195,12.5104694 21.4921095,12.0000003 C21.489152,11.4895311 21.2207156,10.9673271 20.6867766,10.4333881 L19.419405,9.15721527 C19.3079232,9.04573351 19.2521823,8.9107819 19.2521823,8.75236044 L19.2521823,6.96571849 C19.2521823,6.20881598 19.0717579,5.64847343 18.710909,5.28469083 C18.3500601,4.92090823 17.7911844,4.73901693 17.0342819,4.73901693 L15.2476399,4.73901693 C15.083351,4.73901693 14.9454656,4.68620978 14.8339839,4.58059548 L13.5666122,3.30442265 C13.0326732,2.77048368 12.5104691,2.50498106 12,2.50789074 C11.4895309,2.51084852 10.9673268,2.77928487 10.4333878,3.31322385 L9.15721494,4.58059548 C9.04573317,4.68620978 8.91078156,4.73901693 8.7523601,4.73901693 L6.9657181,4.73901693 C6.20881557,4.73901693 5.648473,4.91944137 5.2846904,5.28029024 C4.92090779,5.64113911 4.73901648,6.20294852 4.73901648,6.96571849 L4.73901648,8.75236044 C4.73901648,8.9107819 4.68620933,9.04573351 4.58059502,9.15721527 L3.31322336,10.4333881 C2.77341691,10.9673271 2.50498054,11.4895311 2.50789049,12.0000003 C2.51084801,12.5104694 2.77928437,13.0297397 3.31322336,13.5578112 L4.58059502,14.8427852 C4.68620933,14.954267 4.73901648,15.0892186 4.73901648,15.2476401 L4.73901648,17.034282 C4.73901648,17.7911845 4.92090779,18.3500602 5.2846904,18.7109091 C5.648473,19.071758 6.20881557,19.2521824 6.9657181,19.2521824 L8.7523601,19.2521824 C8.91078156,19.2521824 9.04573317,19.3079233 9.15721494,19.419405 L10.4333878,20.6867767 C10.9673268,21.2265831 11.4895309,21.4950195 12,21.4921095 Z" id="path-1"></path>
    </defs>
    <g id="我的页面改版-----" stroke="none" stroke-width="1" fill="none" fill-rule="evenodd">
        <g id="男版" transform="translate(-26.000000, -593.000000)">
            <g id="模块4备份" transform="translate(12.000000, 566.000000)">
                <g id="我的页列表备份-3" transform="translate(0.000000, 12.000000)">
                    <g id="编组" transform="translate(14.000000, 15.000000)">
                        <mask id="mask-2" fill="white">
                            <use xlink:href="#path-1"></use>
                        </mask>
                        <use id="蒙版" stroke="#313131" stroke-width="1.4" stroke-linecap="round" stroke-linejoin="round" xlink:href="#path-1"></use>
                        <polyline id="路径-3" stroke="#313131" stroke-width="1.4" stroke-linecap="round" stroke-linejoin="round" mask="url(#mask-2)" points="8.63872117 12.0394644 11.4637599 14.6401436 15.3612788 10.1697526"></polyline>
                    </g>
                </g>
            </g>
        </g>
    </g>
</svg>