<?xml version="1.0" encoding="UTF-8"?>
<svg width="48px" height="48px" viewBox="0 0 48 48" version="1.1" xmlns="http://www.w3.org/2000/svg" xmlns:xlink="http://www.w3.org/1999/xlink">
    <title>切片</title>
    <g id="音视频" stroke="none" stroke-width="1" fill="none" fill-rule="evenodd">
        <g id="首页-男看女-视频连线加载中" transform="translate(-98.000000, -666.000000)" fill="#FFFFFF" fill-rule="nonzero">
            <g id="关闭摄像头Button" transform="translate(90.000000, 666.000000)">
                <g id="􀍎备份" transform="translate(8.000000, 0.000000)">
                    <path d="M29,11.5494619 C31.209139,11.5494619 33,13.3403229 33,15.5494619 L33,31.7305764 C33,33.9397154 31.209139,35.7305764 29,35.7305764 L11,35.7305764 C8.790861,35.7305764 7,33.9397154 7,31.7305764 L7,15.5494619 C7,13.3403229 8.790861,11.5494619 11,11.5494619 L29,11.5494619 Z M41.796875,13.828125 C42.3802083,13.828125 42.8515625,14.0208333 43.2109375,14.40625 C43.5703125,14.7916667 43.75,15.296875 43.75,15.921875 L43.75,15.921875 L43.75,31.390625 C43.75,32.015625 43.5703125,32.5208333 43.2109375,32.90625 C42.8515625,33.2916667 42.3802083,33.484375 41.796875,33.484375 C41.5052083,33.484375 41.2109375,33.4140625 40.9140625,33.2734375 C40.6171875,33.1328125 40.328125,32.9427083 40.046875,32.703125 L40.046875,32.703125 L34.828125,28.1875 L34.828125,19.109375 L40.046875,14.609375 C40.328125,14.3697917 40.6171875,14.1796875 40.9140625,14.0390625 C41.2109375,13.8984375 41.5052083,13.828125 41.796875,13.828125 Z" id="􀍎"></path>
                </g>
            </g>
        </g>
    </g>
</svg>