<?xml version="1.0" encoding="UTF-8"?>
<svg width="16px" height="16px" viewBox="0 0 16 16" version="1.1" xmlns="http://www.w3.org/2000/svg" xmlns:xlink="http://www.w3.org/1999/xlink">
    <title>切片</title>
    <g id="主页" stroke="none" stroke-width="1" fill="none" fill-rule="evenodd" fill-opacity="0.602779789">
        <g id="消息-通话" transform="translate(-84.000000, -219.000000)" fill="#313131" fill-rule="nonzero">
            <g id="list备份" transform="translate(0.000000, 177.000000)">
                <g id="􀍊" transform="translate(84.000000, 42.000000)">
                    <path d="M8.64208984,12.4887695 C9.16845703,12.4887695 9.5793457,12.3446452 9.87475586,12.0563965 C10.170166,11.7681478 10.3178711,11.3608398 10.3178711,10.8344727 L10.3178711,5.82324219 C10.3178711,5.30045573 10.1782227,4.89493815 9.89892578,4.60668945 C9.61962891,4.31844076 9.21500651,4.17431641 8.68505859,4.17431641 L3.24414062,4.17431641 C2.73209635,4.17431641 2.32389323,4.31844076 2.01953125,4.60668945 C1.71516927,4.89493815 1.56298828,5.30045573 1.56298828,5.82324219 L1.56298828,10.8505859 C1.56298828,11.3769531 1.71069336,11.7815755 2.00610352,12.0644531 C2.30151367,12.3473307 2.71419271,12.4887695 3.24414062,12.4887695 L8.64208984,12.4887695 Z M13.4384766,11.715332 C13.6354167,11.715332 13.7956543,11.6490885 13.9191895,11.5166016 C14.0427246,11.3841146 14.1044922,11.2104492 14.1044922,10.9956055 L14.1044922,5.67822266 C14.1044922,5.46337891 14.0427246,5.28971354 13.9191895,5.15722656 C13.7956543,5.02473958 13.6354167,4.95849609 13.4384766,4.95849609 C13.3346354,4.95849609 13.2316895,4.98266602 13.1296387,5.03100586 C13.0275879,5.0793457 12.9282227,5.14469401 12.831543,5.22705078 L11.0375977,6.77392578 L11.0375977,9.89453125 L12.831543,11.4467773 C12.9282227,11.5291341 13.0284831,11.5944824 13.1323242,11.6428223 C13.2361654,11.6911621 13.3382161,11.715332 13.4384766,11.715332 Z"></path>
                </g>
            </g>
        </g>
    </g>
</svg>