<?xml version="1.0" encoding="UTF-8"?>
<svg width="48px" height="48px" viewBox="0 0 48 48" version="1.1" xmlns="http://www.w3.org/2000/svg" xmlns:xlink="http://www.w3.org/1999/xlink">
    <title>切片</title>
    <g id="主页" stroke="none" stroke-width="1" fill="none" fill-rule="evenodd">
        <g id="首页-男看女-语音连麦中" transform="translate(-346.000000, -771.000000)" fill="#FFFFFF" fill-rule="nonzero">
            <g id="挂断Button备份" transform="translate(338.000000, 763.000000)">
                <g id="路径" transform="translate(8.000000, 8.000000)">
                    <path d="M6.03110399,24.6584405 C6.03110399,21.4501749 13.0196422,17 24.0016309,17 C35.0158248,17 41.9721578,21.4501749 41.9721578,24.6584405 C41.9721578,27.4182388 42.6484679,31.5579364 37.3346025,30.9369817 C32.020737,30.3160271 32.3749947,28.1771834 32.3749947,25.3138926 C32.3749947,23.3130388 28.0594918,22.8645715 24.0016309,22.8645715 C19.9115647,22.8645715 15.6282671,23.3130388 15.6282671,25.3138926 C15.6282671,28.1771834 15.9825248,30.3160271 10.6686593,30.9369817 C5.32258859,31.5579364 6.03110399,27.4527363 6.03110399,24.6584405 L6.03110399,24.6584405 Z"></path>
                </g>
            </g>
        </g>
    </g>
</svg>