<?xml version="1.0" encoding="UTF-8"?>
<svg width="57px" height="57px" viewBox="0 0 57 57" version="1.1" xmlns="http://www.w3.org/2000/svg" xmlns:xlink="http://www.w3.org/1999/xlink">
    <title>切片</title>
    <g id="聊天" stroke="none" stroke-width="1" fill="none" fill-rule="evenodd">
        <g id="聊天_男性视角-语音3" transform="translate(-159.000000, -365.000000)" fill="#FFFFFF">
            <g id="tost" transform="translate(118.000000, 336.000000)">
                <g id="Fill-1" transform="translate(41.500000, 29.500000)">
                    <path d="M32.4697263,8 L32.1610508,8 C24.3417053,8 18.4432979,13.6240625 18.4432979,21.0815625 L18.4432979,42.5359375 L13.2231684,37.2305 C12.6055686,36.6015625 11.5979745,36.5966875 10.9726656,37.2175625 C10.3470459,37.839875 10.3421966,38.851125 10.9597964,39.48 L18.842742,47.4926875 C19.1531584,47.8095625 19.5637932,47.9680625 19.9744902,47.9680625 C20.3785972,47.9680625 20.7828907,47.81275 21.093307,47.505625 C21.0949856,47.5039375 21.0949856,47.5024375 21.0964155,47.50075 C21.0981563,47.4990625 21.0995862,47.4990625 21.101327,47.4975625 L29.0272945,39.552 C29.6494949,38.928 29.6511735,37.9153125 29.0304652,37.2895625 C28.4096947,36.6606875 27.4021006,36.6638125 26.7799002,37.286375 L21.6263552,42.4511875 L21.6263552,21.0815625 C21.6263552,15.448 26.1560212,11.2 32.1608021,11.2 L32.4697263,11.2 C38.2678531,11.2 42.316694,15.2639375 42.316694,21.0815625 L42.316694,46.3999375 C42.316694,47.2846875 43.0282331,48 43.9083159,48 C44.7883987,48 45.5,47.2849375 45.5,46.3999375 L45.5,21.0815625 C45.5,13.50075 40.0202474,8 32.4697263,8 Z"></path>
                </g>
            </g>
        </g>
    </g>
</svg>