<?xml version="1.0" encoding="UTF-8"?><svg version="1.1" width="28px" height="28px" viewBox="0 0 28.0 28.0" xmlns="http://www.w3.org/2000/svg" xmlns:xlink="http://www.w3.org/1999/xlink"><defs><clipPath id="i0"><path d="M12,0 C18.627417,0 24,5.372583 24,12 C24,18.627417 18.627417,24 12,24 C5.372583,24 0,18.627417 0,12 C0,5.372583 5.372583,0 12,0 Z"></path></clipPath><clipPath id="i1"><path d="M13.1,4 C13.7075132,4 14.2,4.49248678 14.2,5.1 C14.2,5.70751322 13.7075132,6.2 13.1,6.2 C12.4924868,6.2 12,5.70751322 12,5.1 C12,4.49248678 12.4924868,4 13.1,4 Z M9.1,4 C9.70751322,4 10.2,4.49248678 10.2,5.1 C10.2,5.70751322 9.70751322,6.2 9.1,6.2 C8.49248678,6.2 8,5.70751322 8,5.1 C8,4.49248678 8.49248678,4 9.1,4 Z M5.1,4 C5.70751322,4 6.2,4.49248678 6.2,5.1 C6.2,5.70751322 5.70751322,6.2 5.1,6.2 C4.49248678,6.2 4,5.70751322 4,5.1 C4,4.49248678 4.49248678,4 5.1,4 Z M1.1,4 C1.70751322,4 2.2,4.49248678 2.2,5.1 C2.2,5.70751322 1.70751322,6.2 1.1,6.2 C0.492486775,6.2 0,5.70751322 0,5.1 C0,4.49248678 0.492486775,4 1.1,4 Z M13.1,0 C13.7075132,0 14.2,0.492486775 14.2,1.1 C14.2,1.70751322 13.7075132,2.2 13.1,2.2 C12.4924868,2.2 12,1.70751322 12,1.1 C12,0.492486775 12.4924868,0 13.1,0 Z M9.1,0 C9.70751322,0 10.2,0.492486775 10.2,1.1 C10.2,1.70751322 9.70751322,2.2 9.1,2.2 C8.49248678,2.2 8,1.70751322 8,1.1 C8,0.492486775 8.49248678,0 9.1,0 Z M5.1,0 C5.70751322,0 6.2,0.492486775 6.2,1.1 C6.2,1.70751322 5.70751322,2.2 5.1,2.2 C4.49248678,2.2 4,1.70751322 4,1.1 C4,0.492486775 4.49248678,0 5.1,0 Z M1.1,0 C1.70751322,0 2.2,0.492486775 2.2,1.1 C2.2,1.70751322 1.70751322,2.2 1.1,2.2 C0.492486775,2.2 0,1.70751322 0,1.1 C0,0.492486775 0.492486775,0 1.1,0 Z"></path></clipPath><clipPath id="i2"><path d="M13.2,0 C13.6418278,-8.11624501e-17 14,0.3581722 14,0.8 C14,1.2418278 13.6418278,1.6 13.2,1.6 L0.8,1.6 C0.3581722,1.6 5.41083001e-17,1.2418278 0,0.8 C-5.41083001e-17,0.3581722 0.3581722,8.11624501e-17 0.8,0 L13.2,0 Z"></path></clipPath></defs><g transform="translate(2.0 2.0)"><g clip-path="url(#i0)"><path d="M12,24 C18.627417,24 24,18.627417 24,12 C24,5.372583 18.627417,0 12,0 C5.372583,0 0,5.372583 0,12 C0,18.627417 5.372583,24 12,24 Z" stroke="#303030" stroke-width="3.2" fill="none" stroke-miterlimit="5"></path></g></g><g transform="translate(7.1364656227015075 9.044779757003994)"><g clip-path="url(#i1)"><polygon points="0,0 14.2,0 14.2,6.2 0,6.2 0,0" stroke="none" fill="#303030"></polygon></g></g><g transform="translate(7.0 17.86445658286192)"><g clip-path="url(#i2)"><polygon points="0,0 14,0 14,1.6 0,1.6 0,0" stroke="none" fill="#303030"></polygon></g></g></svg>