<?xml version="1.0" encoding="UTF-8"?>
<svg width="48px" height="48px" viewBox="0 0 48 48" version="1.1" xmlns="http://www.w3.org/2000/svg" xmlns:xlink="http://www.w3.org/1999/xlink">
    <title>切片</title>
    <g id="音视频" stroke="none" stroke-width="1" fill="none" fill-rule="evenodd">
        <g id="首页-对方接听" transform="translate(-290.000000, -771.000000)" fill="#FFFFFF" fill-rule="nonzero">
            <g id="切换摄像头" transform="translate(282.000000, 763.000000)">
                <g id="形状" transform="translate(8.000000, 8.000000)">
                    <path d="M22.2337851,16.8687908 C16.5884517,16.9487908 12.1537851,17.9807908 7.81511843,20.2127908 C6.74699097,20.7189454 5.75293118,21.3684935 4.86045174,22.1434575 C4.0895481,22.8002524 3.42559745,23.5730622 2.89245174,24.4341241 C1.71701828,26.3674556 1.32045847,28.6753194 1.78311843,30.8901241 C2.09511843,32.2527908 2.61511843,33.1941241 3.36711843,33.6821241 C4.46845174,34.4181241 6.00978512,34.1194575 6.91378505,33.9194575 C9.30311837,33.4181241 11.7404517,32.2794575 11.8444517,32.2287908 C12.2951184,32.0474575 12.6391184,31.8127908 12.7964517,31.6554575 C12.972005,31.4950822 13.1221641,31.3089569 13.2417851,31.1034575 C13.7351184,30.3354575 13.8017851,29.2981241 13.4897851,27.8287908 C13.3299606,27.127064 13.1159864,26.4387805 12.8497851,25.7701241 C12.7479273,25.5581886 12.7538775,25.3102626 12.8657851,25.1034575 L12.9191184,25.0501241 C13.0204517,24.8367908 13.2071184,24.7621241 13.3911184,24.6847908 C16.3491215,23.9487346 19.3830707,23.5612125 22.4311184,23.5301241 C25.6311184,23.4687908 28.8044517,23.8581241 31.6631184,24.5647908 C32.0897851,24.6767908 32.3644517,25.1061241 32.2897851,25.5034575 C32.2151184,25.9034575 31.8764517,28.3487908 31.8764517,28.3487908 L31.8764517,28.4021241 C31.7644517,29.8127908 31.6764517,31.3034575 33.9537851,32.1621241 C36.1484517,32.9887908 38.3671184,33.5807908 40.0231184,33.8154575 C41.2764517,34.0207908 42.0177851,33.6021241 42.4657851,33.2101241 C42.6897546,33.0281454 42.8763094,32.8044608 43.0151184,32.5514575 C43.3271184,32.0234575 43.5324517,31.3327908 43.6284517,30.4821241 C43.6977851,29.8687908 44.2337851,24.3647908 39.0471184,21.0687908 C37.9191184,20.3621241 31.9004517,16.7621241 22.2337851,16.8687908 L22.2337851,16.8687908 Z" id="路径" transform="translate(22.635640, 25.509316) rotate(-135.000000) translate(-22.635640, -25.509316) "></path>
                </g>
            </g>
        </g>
    </g>
</svg>