<?xml version="1.0" encoding="UTF-8"?><svg version="1.1" width="28px" height="28px" viewBox="0 0 28.0 28.0" xmlns="http://www.w3.org/2000/svg" xmlns:xlink="http://www.w3.org/1999/xlink"><defs><clipPath id="i0"><path d="M10.8,5.2 C11.2418278,5.2 11.6,5.5581722 11.6,6 C11.6,8.85085913 9.52326479,11.2166708 6.80008534,11.6671439 L6.8,13.2 C6.8,13.6418278 6.4418278,14 6,14 C5.5581722,14 5.2,13.6418278 5.2,13.2 L5.19946162,11.7068611 C3.75083822,11.54039 2.41007737,10.8271275 1.46060121,9.69898901 C0.495827189,8.55276129 0,7.31232676 0,6 C0,5.5581722 0.3581722,5.2 0.8,5.2 C1.2418278,5.2 1.6,5.5581722 1.6,6 C1.6,6.91673909 1.9526076,7.79887434 2.68472591,8.66868871 C3.47218686,9.60432571 4.63266912,10.1444199 5.85558014,10.1444199 C8.14448003,10.1444199 10,8.28889989 10,6 C10,5.5581722 10.3581722,5.2 10.8,5.2 Z M5.8,0 C7.45685425,-3.04359188e-16 8.8,1.34314575 8.8,3 L8.8,6 C8.8,7.65685425 7.45685425,9 5.8,9 C4.14314575,9 2.8,7.65685425 2.8,6 L2.8,3 C2.8,1.34314575 4.14314575,3.04359188e-16 5.8,0 Z"></path></clipPath><clipPath id="i1"><path d="M12,0 C18.627417,0 24,5.372583 24,12 C24,18.627417 18.627417,24 12,24 C5.372583,24 0,18.627417 0,12 C0,5.372583 5.372583,0 12,0 Z"></path></clipPath></defs><g transform="translate(2.0 2.0)"><g transform="translate(5.0 5.0)"><g transform="translate(1.2000000000000446 0.0)"><g clip-path="url(#i0)"><polygon points="0,0 11.6,0 11.6,14 0,14 0,0" stroke="none" fill="#303030"></polygon></g></g></g><g clip-path="url(#i1)"><path d="M12,24 C18.627417,24 24,18.627417 24,12 C24,5.372583 18.627417,0 12,0 C5.372583,0 0,5.372583 0,12 C0,18.627417 5.372583,24 12,24 Z" stroke="#303030" stroke-width="3.2" fill="none" stroke-miterlimit="5"></path></g></g></svg>