<?xml version="1.0" encoding="UTF-8"?><svg version="1.1" width="28px" height="28px" viewBox="0 0 28.0 28.0" xmlns="http://www.w3.org/2000/svg" xmlns:xlink="http://www.w3.org/1999/xlink"><defs><clipPath id="i0"><path d="M28,0 L28,28 L0,28 L0,0 L28,0 Z"></path></clipPath></defs><g clip-path="url(#i0)"><g transform="translate(15.0 3.0)"><path d="M5.64453961,7 C6.06423983,7 6.39186296,6.87866064 6.62740899,6.63598191 C6.86295503,6.39330319 6.98072805,6.0503876 6.98072805,5.60723514 L6.98072805,1.38824289 C6.98072805,0.948105082 6.86937901,0.606696813 6.64668094,0.364018088 C6.42398287,0.121339363 6.10135617,0 5.67880086,0 L1.34047109,0 C0.932191292,0 0.606709493,0.121339363 0.364025696,0.364018088 C0.121341899,0.606696813 0,0.948105082 0,1.38824289 L0,5.62080103 C0,6.06395349 0.117773019,6.4046081 0.353319058,6.64276486 C0.588865096,6.88092162 0.917915774,7 1.34047109,7 L5.64453961,7 Z M9.31055034,6.34883721 C9.50319482,6.34883721 9.65993738,6.29306632 9.78077801,6.18152455 C9.90161864,6.06998277 9.96203895,5.92377261 9.96203895,5.74289406 L9.96203895,1.26614987 C9.96203895,1.08527132 9.90161864,0.939061154 9.78077801,0.82751938 C9.65993738,0.715977606 9.50319482,0.660206718 9.31055034,0.660206718 C9.20897415,0.660206718 9.10827363,0.680555556 9.00844876,0.72125323 C8.90862389,0.761950904 8.81142599,0.816968131 8.71685506,0.88630491 L6.96203895,2.18863049 L6.96203895,4.81589147 L8.71685506,6.12273902 C8.81142599,6.1920758 8.90949955,6.24709302 9.01107573,6.2877907 C9.11265191,6.32848837 9.21247678,6.34883721 9.31055034,6.34883721 Z" stroke="#313131" stroke-width="1.6" fill="none" stroke-miterlimit="10"></path></g><g transform="translate(6.615921156295996 2.729744870629924) rotate(45.00000000000001)"><path d="M7.83371832,3.187502 L7.83380086,3.93481102 C7.83502527,4.66244672 8.39344656,5.26784653 9.11859859,5.3279281 C10.6279149,5.44965374 11.8460068,5.51051655 12.7728745,5.51051655 C13.6985004,5.51051655 14.9146089,5.44981625 16.4211999,5.32841564 C17.1487875,5.27133185 17.7102958,4.66473011 17.7113235,3.93490743 L17.7113039,3.18794612 C17.7112848,2.45632359 18.2075278,1.8178862 18.9165311,1.63737074 L23.7447727,0.408078488 C24.6015229,0.191684442 25.4712836,0.711121542 25.6873567,1.56795273 C25.7020131,1.62607252 25.7133921,1.68496999 25.72029,1.74452239 C26.0768002,4.32306733 25.3526124,6.24575169 23.5477267,7.51257547 C20.2616739,9.81900942 16.7463225,10 12.7728745,10 C8.79942641,10 4.62777932,9.48600384 1.99735051,7.51223945 C0.570986622,6.44195532 -0.091422493,4.58554345 0.0101231655,1.94300385 C0.0463207563,1.06008992 0.791289392,0.373562167 1.67420954,0.409607405 C1.78453969,0.414111636 1.89410718,0.430025137 2.00080681,0.458490835 L6.62862488,1.63717917 C7.33748394,1.81772298 7.83363753,2.45601226 7.83371832,3.187502 Z" stroke="#313131" stroke-width="1.6" fill="none" stroke-miterlimit="10"></path></g></g></svg>