<?xml version="1.0" encoding="UTF-8"?>
<svg width="48px" height="48px" viewBox="0 0 48 48" version="1.1" xmlns="http://www.w3.org/2000/svg" xmlns:xlink="http://www.w3.org/1999/xlink">
    <title>切片</title>
    <g id="音视频" stroke="none" stroke-width="1" fill="none" fill-rule="evenodd">
        <g id="首页-男看女-视频连线加载中" transform="translate(-98.000000, -771.000000)" fill="#FFFFFF" fill-rule="nonzero">
            <g id="关闭摄像头Button" transform="translate(90.000000, 666.000000)">
                <g id="􀍎" transform="translate(8.000000, 105.000000)">
                    <path d="M6.15625,8 C6.47916667,8 6.75,8.109375 6.96875,8.328125 L6.96875,8.328125 L36.109375,37.453125 C36.328125,37.671875 36.4375,37.9401042 36.4375,38.2578125 C36.4375,38.5755208 36.328125,38.8489583 36.109375,39.078125 C35.8802083,39.3072917 35.6041667,39.421875 35.28125,39.421875 C34.9583333,39.421875 34.6875,39.3072917 34.46875,39.078125 L34.46875,39.078125 L5.328125,9.96875 C5.109375,9.76041667 5,9.4921875 5,9.1640625 C5,8.8359375 5.109375,8.55729167 5.328125,8.328125 C5.55729167,8.109375 5.83333333,8 6.15625,8 Z M7.11758172,14.5828358 L28.287,35.73 L11,35.7305764 C8.790861,35.7305764 7,33.9397154 7,31.7305764 L7,15.5494619 C7,15.2161607 7.04076521,14.8923806 7.11758172,14.5828358 Z M41.796875,13.828125 C42.3802083,13.828125 42.8515625,14.0208333 43.2109375,14.40625 C43.5703125,14.7916667 43.75,15.296875 43.75,15.921875 L43.75,15.921875 L43.75,31.390625 C43.75,32.015625 43.5703125,32.5208333 43.2109375,32.90625 C42.8515625,33.2916667 42.3802083,33.484375 41.796875,33.484375 C41.5052083,33.484375 41.2109375,33.4140625 40.9140625,33.2734375 C40.6171875,33.1328125 40.328125,32.9427083 40.046875,32.703125 L40.046875,32.703125 L34.828125,28.1875 L34.828125,19.109375 L40.046875,14.609375 C40.328125,14.3697917 40.6171875,14.1796875 40.9140625,14.0390625 C41.2109375,13.8984375 41.5052083,13.828125 41.796875,13.828125 Z M29,11.5494619 C31.209139,11.5494619 33,13.3403229 33,15.5494619 L33,31.518 L13.02,11.549 L29,11.5494619 Z" id="形状结合"></path>
                </g>
            </g>
        </g>
    </g>
</svg>