<?xml version="1.0" encoding="UTF-8"?>
<svg width="16px" height="16px" viewBox="0 0 16 16" version="1.1" xmlns="http://www.w3.org/2000/svg" xmlns:xlink="http://www.w3.org/1999/xlink">
    <title>切片</title>
    <g id="主页" stroke="none" stroke-width="1" fill="none" fill-rule="evenodd" fill-opacity="0.602779789">
        <g id="消息-通话" transform="translate(-83.000000, -147.000000)" fill="#313131" fill-rule="nonzero">
            <g id="list备份-6" transform="translate(0.000000, 105.000000)">
                <g id="􀌿" transform="translate(83.000000, 42.000000)">
                    <path d="M11.0864258,13.5107422 C11.4799805,13.5107422 11.8470866,13.440918 12.1877441,13.3012695 C12.5284017,13.1616211 12.8341471,12.9394531 13.1049805,12.6347656 C13.261556,12.4570312 13.3874512,12.2666016 13.482666,12.0634766 C13.5778809,11.8603516 13.6254883,11.6551107 13.6254883,11.4477539 C13.6254883,11.2954102 13.59375,11.1472982 13.5302734,11.003418 C13.4667969,10.8595378 13.3610026,10.7368164 13.2128906,10.6352539 L11.3657227,9.32763672 C11.2218424,9.22184245 11.0895996,9.14567057 10.9689941,9.09912109 C10.8483887,9.05257161 10.7330729,9.02929688 10.6230469,9.02929688 C10.4876302,9.02929688 10.3553874,9.06632487 10.2263184,9.14038086 C10.0972493,9.21443685 9.96500651,9.32128906 9.82958984,9.4609375 L9.39160156,9.87988281 C9.33235677,9.94335938 9.2561849,9.97509766 9.16308594,9.97509766 C9.11653646,9.97509766 9.07210286,9.96769206 9.02978516,9.95288086 C8.98746745,9.93806966 8.9514974,9.92431641 8.921875,9.91162109 C8.73144531,9.81005859 8.48917643,9.6344401 8.19506836,9.38476562 C7.90096029,9.13509115 7.60579427,8.86214193 7.30957031,8.56591797 C7.00911458,8.26969401 6.73404948,7.97347005 6.484375,7.67724609 C6.23470052,7.38102214 6.06119792,7.1398112 5.96386719,6.95361328 C5.9469401,6.91975911 5.93107096,6.88273112 5.91625977,6.8425293 C5.90144857,6.80232747 5.89404297,6.75683594 5.89404297,6.70605469 C5.89404297,6.6171875 5.92578125,6.54313151 5.98925781,6.48388672 L6.41455078,6.05224609 C6.54996745,5.91259766 6.65576172,5.77823893 6.73193359,5.64916992 C6.80810547,5.52010091 6.84619141,5.38574219 6.84619141,5.24609375 C6.84619141,5.13606771 6.82185872,5.02075195 6.77319336,4.90014648 C6.72452799,4.77954102 6.64941406,4.64729818 6.54785156,4.50341797 L5.24658203,2.68164062 C5.14501953,2.53352865 5.02018229,2.42456055 4.87207031,2.35473633 C4.72395833,2.28491211 4.56526693,2.25 4.39599609,2.25 C3.98128255,2.25 3.59407552,2.4235026 3.234375,2.77050781 C2.93815104,3.05403646 2.72233073,3.3671875 2.58691406,3.70996094 C2.4514974,4.05273438 2.38378906,4.41666667 2.38378906,4.80175781 C2.38378906,5.38151042 2.51814779,5.9930013 2.78686523,6.63623047 C3.05558268,7.27945964 3.4226888,7.92163086 3.88818359,8.56274414 C4.35367839,9.20385742 4.88053385,9.81640625 5.46875,10.4003906 C6.0485026,10.9886068 6.66210938,11.5175781 7.30957031,11.9873047 C7.95703125,12.4570312 8.60449219,12.8283691 9.25195312,13.1013184 C9.89941406,13.3742676 10.5109049,13.5107422 11.0864258,13.5107422 Z"></path>
                </g>
            </g>
        </g>
    </g>
</svg>