<?xml version="1.0" encoding="UTF-8"?>
<svg width="28px" height="28px" viewBox="0 0 28 28" version="1.1" xmlns="http://www.w3.org/2000/svg" xmlns:xlink="http://www.w3.org/1999/xlink">
    <title>切片</title>
    <g id="63" stroke="none" stroke-width="1" fill="none" fill-rule="evenodd" opacity="0.400000006">
        <g id="2" transform="translate(-250.000000, -629.000000)" fill-rule="nonzero" stroke="#313131" stroke-width="2">
            <g id="inputfield" transform="translate(0.000000, 619.000000)">
                <g id="Combined-Shape" transform="translate(244.563833, 10.000000)">
                    <path d="M23.9189456,24 C24.619115,24 25.27223,23.8759865 25.8782906,23.6279594 C26.4843512,23.3799324 27.0283,22.9853439 27.510137,22.4441939 C27.788699,22.1285231 28.0126779,21.7903044 28.1820738,21.4295378 C28.3514696,21.0687711 28.4361675,20.7042465 28.4361675,20.3359639 C28.4361675,20.065389 28.3797022,19.80233 28.2667717,19.5467869 C28.1538411,19.2912439 27.9656235,19.0732807 27.7021189,18.8928974 L24.41584,16.5704622 C24.1598641,16.3825629 23.9245921,16.2472755 23.7100241,16.1645998 C23.495456,16.0819241 23.2902989,16.0405862 23.0945526,16.0405862 C22.8536341,16.0405862 22.6183621,16.106351 22.3887367,16.2378805 C22.1591112,16.36941 21.9238392,16.5591883 21.6829207,16.8072153 L20.9037,17.5512965 C20.7982981,17.6640361 20.6627815,17.7204059 20.49715,17.7204059 C20.4143343,17.7204059 20.3352829,17.7072529 20.2599958,17.680947 C20.1847088,17.6546411 20.1207148,17.6302142 20.0680139,17.6076663 C19.7292223,17.427283 19.298204,17.1153702 18.7749591,16.6719278 C18.2517143,16.2284855 17.7265872,15.7437054 17.199578,15.2175874 C16.6650401,14.6914694 16.1756744,14.1653514 15.7314809,13.6392334 C15.2872874,13.1131154 14.9786106,12.684705 14.8054504,12.3540023 C14.7753356,12.2938745 14.7471029,12.2281097 14.7207525,12.156708 C14.694402,12.0853063 14.6812268,12.0045096 14.6812268,11.9143179 C14.6812268,11.7564825 14.7376921,11.624953 14.8506226,11.5197294 L15.6072573,10.7531003 C15.8481758,10.5050733 16.0363934,10.2664412 16.17191,10.0372041 C16.3074267,9.80796693 16.375185,9.56933484 16.375185,9.32130778 C16.375185,9.12589252 16.331895,8.9210823 16.2453149,8.70687711 C16.1587348,8.49267193 16.0251003,8.25779782 15.8444114,8.00225479 L13.5293352,4.76662909 C13.3486463,4.50357009 13.1265496,4.31003382 12.863045,4.18602029 C12.5995403,4.06200676 12.317214,4 12.0160659,4 C11.2782529,4 10.5893766,4.30815483 9.94943683,4.92446449 C9.42242761,5.42803457 9.03846374,5.98421646 8.79754524,6.59301015 C8.55662674,7.20180383 8.43616749,7.84817738 8.43616749,8.53213078 C8.43616749,9.56181887 8.67520382,10.6478767 9.15327647,11.7903044 C9.63134912,12.9327321 10.2844641,14.0732807 11.1126215,15.2119504 C11.9407788,16.3506201 12.8781024,17.4385569 13.9245921,18.475761 C14.9560244,19.520481 16.0476864,20.4599775 17.199578,21.2942503 C18.3514696,22.1285231 19.5033612,22.7880496 20.6552528,23.2728298 C21.8071443,23.7576099 22.8950419,24 23.9189456,24 Z" id="􀌿"></path>
                    <path d="M26.0807071,10 C26.5004073,10 26.8280304,9.87866064 27.0635765,9.63598191 C27.2991225,9.39330319 27.4168955,9.0503876 27.4168955,8.60723514 L27.4168955,4.38824289 C27.4168955,3.94810508 27.3055465,3.60669681 27.0828484,3.36401809 C26.8601504,3.12133936 26.5375237,3 26.1149683,3 L21.7766386,3 C21.3683588,3 21.042877,3.12133936 20.8001932,3.36401809 C20.5575094,3.60669681 20.4361675,3.94810508 20.4361675,4.38824289 L20.4361675,8.62080103 C20.4361675,9.06395349 20.5539405,9.4046081 20.7894865,9.64276486 C21.0250326,9.88092162 21.3540833,10 21.7766386,10 L26.0807071,10 Z M29.7467178,9.34883721 C29.9393623,9.34883721 30.0961049,9.29306632 30.2169455,9.18152455 C30.3377861,9.06998277 30.3982064,8.92377261 30.3982064,8.74289406 L30.3982064,4.26614987 C30.3982064,4.08527132 30.3377861,3.93906115 30.2169455,3.82751938 C30.0961049,3.71597761 29.9393623,3.66020672 29.7467178,3.66020672 C29.6451416,3.66020672 29.5444411,3.68055556 29.4446162,3.72125323 C29.3447914,3.7619509 29.2475935,3.81696813 29.1530226,3.88630491 L27.3982064,5.18863049 L27.3982064,7.81589147 L29.1530226,9.12273902 C29.2475935,9.1920758 29.345667,9.24709302 29.4472432,9.2877907 C29.5488194,9.32848837 29.6486443,9.34883721 29.7467178,9.34883721 Z" id="􀍊"></path>
                </g>
            </g>
        </g>
    </g>
</svg>