<?xml version="1.0" encoding="UTF-8"?>
<svg width="48px" height="48px" viewBox="0 0 48 48" version="1.1" xmlns="http://www.w3.org/2000/svg" xmlns:xlink="http://www.w3.org/1999/xlink">
    <title>形状备份 3</title>
    <g id="形状备份-3" stroke="none" stroke-width="1" fill="none" fill-rule="evenodd">
        <path d="M28.5073684,22.4842105 L28.5073684,13.0526316 C28.5073684,10.2568421 26.2505263,8 23.4547368,8 C20.8610526,8 18.7557895,9.95368421 18.4694737,12.4631579 L28.5073684,22.4842105 Z M33.6947368,23.1578947 C33.0042105,23.1578947 32.3978947,23.6631579 32.2968421,24.3536842 C32.2126316,24.8926316 32.0947368,25.4315789 31.9263158,25.92 L34.0652632,28.0589474 C34.5705263,27.0484211 34.9410526,25.9536842 35.1263158,24.7915789 C35.2442105,23.9326316 34.5705263,23.1578947 33.6947368,23.1578947 Z M9.49263158,10.6273684 C8.83578947,11.2842105 8.83578947,12.3452632 9.49263158,13.0021053 L18.4021053,21.9284211 L18.4021053,22.6526316 C18.4021053,24.6568421 19.4126316,26.56 21.1473684,27.5536842 C22.4105263,28.2778947 23.5221053,28.2947368 24.5494737,28.0757895 L27.3452632,30.8715789 C26.1494737,31.4273684 24.8189474,31.7473684 23.4547368,31.7473684 C19.1768421,31.7473684 15.2357895,28.7663158 14.6126316,24.3536842 C14.5115789,23.6631579 13.9052632,23.1578947 13.2147368,23.1578947 C12.3389474,23.1578947 11.6652632,23.9326316 11.7831579,24.7915789 C12.5578947,29.7768421 16.7684211,33.7178947 21.7705263,34.4757895 L21.7705263,38.3157895 C21.7705263,39.2421053 22.5284211,40 23.4547368,40 C24.3810526,40 25.1389474,39.2421053 25.1389474,38.3157895 L25.1389474,34.4757895 C26.6715789,34.2568421 28.12,33.7178947 29.4336842,32.96 L35.3115789,38.8378947 C35.9684211,39.4947368 37.0294737,39.4947368 37.6863158,38.8378947 C38.3431579,38.1810526 38.3431579,37.12 37.6863158,36.4631579 L11.8673684,10.6273684 C11.2105263,9.97052632 10.1494737,9.97052632 9.49263158,10.6273684 Z" id="形状" fill="#FFFFFF" fill-rule="nonzero"></path>
    </g>
</svg>