<?xml version="1.0" encoding="UTF-8"?>
<svg width="12px" height="11px" viewBox="0 0 12 11" version="1.1" xmlns="http://www.w3.org/2000/svg" xmlns:xlink="http://www.w3.org/1999/xlink">
    <title>ic</title>
    <defs>
        <rect id="path-1" x="0" y="0" width="11" height="11"></rect>
    </defs>
    <g id="公共组件/标签" stroke="none" stroke-width="1" fill="none" fill-rule="evenodd">
        <g id="标签整理" transform="translate(-210.000000, -761.000000)">
            <g id="性别" transform="translate(207.900000, 758.000000)">
                <g id="ic" transform="translate(3.000000, 3.000000)">
                    <mask id="mask-2" fill="white">
                        <use xlink:href="#path-1"></use>
                    </mask>
                    <g id="蒙版"></g>
                    <g mask="url(#mask-2)">
                        <g transform="translate(5.878749, 5.129752) rotate(-330.000000) translate(-5.878749, -5.129752) translate(2.378749, 0.072450)">
                            <g id="编组" transform="translate(-0.000000, -0.000000)">
                                <circle id="椭圆形" stroke="#FFFFFF" cx="3.5" cy="3.5" r="3"></circle>
                                <path d="M3.5,6.11460313 C3.77614237,6.11460313 4,6.33846076 4,6.61460313 L4,9.61460313 C4,9.89074551 3.77614237,10.1146031 3.5,10.1146031 C3.22385763,10.1146031 3,9.89074551 3,9.61460313 L3,6.61460313 C3,6.33846076 3.22385763,6.11460313 3.5,6.11460313 Z" id="矩形" fill="#FFFFFF"></path>
                            </g>
                            <g id="编组-2" transform="translate(0.500000, 7.452953)">
                                <rect id="矩形" fill="#FFFFFF" x="2.35367281e-14" y="-1.52433621e-13" width="6" height="1" rx="0.5"></rect>
                            </g>
                        </g>
                    </g>
                </g>
            </g>
        </g>
    </g>
</svg>