<?xml version="1.0" encoding="UTF-8"?>
<svg width="24px" height="24px" viewBox="0 0 24 24" version="1.1" xmlns="http://www.w3.org/2000/svg" xmlns:xlink="http://www.w3.org/1999/xlink">
    <title>编组 14</title>
    <g id="恋爱交友" stroke="none" stroke-width="1" fill="none" fill-rule="evenodd">
        <g id="世界群聊1" transform="translate(-16.000000, -698.000000)">
            <g id="底部输入框" transform="translate(0.000000, 682.000000)">
                <g id="编组-29" transform="translate(16.000000, 16.000000)">
                    <g id="编组-31" transform="translate(5.000000, 5.000000)">
                        <rect id="矩形" x="0" y="0" width="14" height="14"></rect>
                        <path d="M12,5.2 C12.4418278,5.2 12.8,5.5581722 12.8,6 C12.8,8.85085913 10.7232648,11.2166708 8.00008534,11.6671439 L8,13.2 C8,13.6418278 7.6418278,14 7.2,14 C6.7581722,14 6.4,13.6418278 6.4,13.2 L6.39946162,11.7068611 C4.95083822,11.54039 3.61007737,10.8271275 2.66060121,9.69898901 C1.69582719,8.55276129 1.2,7.31232676 1.2,6 C1.2,5.5581722 1.5581722,5.2 2,5.2 C2.4418278,5.2 2.8,5.5581722 2.8,6 C2.8,6.91673909 3.1526076,7.79887434 3.88472591,8.66868871 C4.67218686,9.60432571 5.83266912,10.1444199 7.05558014,10.1444199 C9.34448003,10.1444199 11.2,8.28889989 11.2,6 C11.2,5.5581722 11.5581722,5.2 12,5.2 Z M7,0 C8.65685425,-3.04359188e-16 10,1.34314575 10,3 L10,6 C10,7.65685425 8.65685425,9 7,9 C5.34314575,9 4,7.65685425 4,6 L4,3 C4,1.34314575 5.34314575,3.04359188e-16 7,0 Z" id="形状结合" fill="#949494"></path>
                    </g>
                    <circle id="Oval-2" stroke="#949494" stroke-width="1.6" cx="12" cy="12" r="11.2"></circle>
                </g>
            </g>
        </g>
    </g>
</svg>