<?xml version="1.0" encoding="UTF-8"?>
<svg width="48px" height="48px" viewBox="0 0 48 48" version="1.1" xmlns="http://www.w3.org/2000/svg" xmlns:xlink="http://www.w3.org/1999/xlink">
    <title>切片</title>
    <defs>
        <linearGradient x1="6.82100923%" y1="79.2384007%" x2="100%" y2="17.8632819%" id="linearGradient-1">
            <stop stop-color="#7658FF" offset="0%"></stop>
            <stop stop-color="#A889FD" offset="100%"></stop>
        </linearGradient>
    </defs>
    <g id="主页" stroke="none" stroke-width="1" fill="none" fill-rule="evenodd">
        <g id="首页-男看女-语音连麦中" transform="translate(-242.000000, -771.000000)" fill="url(#linearGradient-1)" fill-rule="nonzero">
            <g id="切换摄像头" transform="translate(234.000000, 763.000000)">
                <g id="形状" transform="translate(8.000000, 8.000000)">
                    <path d="M10,20.929213 L10,27.0763596 C10,27.9215922 10.7,28.6131462 11.5555556,28.6131462 L16.2222222,28.6131462 L21.34,33.6691742 C22.32,34.6373498 24,33.9457958 24,32.5780557 L24,15.412149 C24,14.0444089 22.32,13.3528549 21.34,14.3210305 L16.2222222,19.3924264 L11.5555556,19.3924264 C10.7,19.3924264 10,20.0839804 10,20.929213 Z M31,24.0027863 C31,21.2826739 29.4133333,18.9467583 27.1111111,17.8095361 L27.1111111,30.1806686 C29.4133333,29.0588143 31,26.7228986 31,24.0027863 Z M27.1111111,12.4000472 L27.1111111,12.7074045 C27.1111111,13.2913834 27.5,13.798523 28.0444444,14.0136732 C32.0577778,15.5965634 34.8888889,19.4846336 34.8888889,24.0027863 C34.8888889,28.520939 32.0577778,32.4090092 28.0444444,33.9918994 C27.4844444,34.2070495 27.1111111,34.7141891 27.1111111,35.2981681 L27.1111111,35.6055254 C27.1111111,36.573701 28.0911111,37.2498871 28.9933333,36.911794 C34.2666667,34.9293393 38,29.904047 38,24.0027863 C38,18.1015256 34.2666667,13.0762333 28.9933333,11.0937786 C28.0911111,10.7403176 27.1111111,11.4318716 27.1111111,12.4000472 Z"></path>
                </g>
            </g>
        </g>
    </g>
</svg>