<?xml version="1.0" encoding="UTF-8"?>
<svg width="48px" height="48px" viewBox="0 0 48 48" version="1.1" xmlns="http://www.w3.org/2000/svg" xmlns:xlink="http://www.w3.org/1999/xlink">
    <title>切片</title>
    <g id="主页" stroke="none" stroke-width="1" fill="none" fill-rule="evenodd">
        <g id="首页-男看女-语音连麦中-2" transform="translate(-242.000000, -771.000000)" fill="#FFFFFF" fill-rule="nonzero">
            <g id="切换摄像头" transform="translate(234.000000, 763.000000)">
                <g id="形状" transform="translate(8.000000, 8.000000)">
                    <path d="M10.98,10.4561074 C10.3733333,11.0642506 10.3733333,12.0466359 10.98,12.6547791 L16.6733333,18.3619694 L16.2222222,18.8297719 L11.5555556,18.8297719 C10.7,18.8297719 10,19.5314756 10,20.3891135 L10,26.6264799 C10,27.4841178 10.7,28.1858215 11.5555556,28.1858215 L16.2222222,28.1858215 L21.34,33.3160554 C22.32,34.2984407 24,33.5967369 24,32.2089229 L24,25.7064684 L30.5022222,32.2245163 C29.74,32.8014727 28.9155556,33.2848686 28.0133333,33.6435172 C27.4533333,33.8774184 27.1111111,34.4699682 27.1111111,35.0781115 C27.1111111,36.2008374 28.2466667,36.9181346 29.2733333,36.4971123 C30.5177778,35.9825296 31.6844444,35.2964193 32.7266667,34.4543748 L34.8111111,36.5438926 C35.4177778,37.1520358 36.3977778,37.1520358 37.0044444,36.5438926 C37.6111111,35.9357494 37.6111111,34.9533641 37.0044444,34.3452209 L13.1888889,10.4561074 C12.5822222,9.84796419 11.6022222,9.84796419 10.98,10.4561074 Z M34.8888889,23.5077967 C34.8888889,24.7864568 34.6555556,26.0183367 34.2511111,27.1566561 L36.6311111,29.5424487 C37.5022222,27.7180191 38,25.6752815 38,23.5077967 C38,17.5355183 34.2666667,12.4208779 29.0088889,10.4093272 C28.0911111,10.0506786 27.1111111,10.7679757 27.1111111,11.750361 L27.1111111,12.0466359 C27.1111111,12.6391857 27.5,13.1537684 28.06,13.3720762 C32.0577778,14.9937915 34.8888889,18.9233324 34.8888889,23.5077967 Z M21.34,13.699538 L21.0755556,13.964626 L24,16.8961883 L24,14.7910771 C24,13.4032631 22.32,12.7171528 21.34,13.699538 Z M31,23.5077967 C31,20.7477621 29.4133333,18.3775628 27.1111111,17.22365 L27.1111111,20.0148715 L30.9688889,23.8820387 C30.9844444,23.7572914 31,23.632544 31,23.5077967 Z"></path>
                </g>
            </g>
        </g>
    </g>
</svg>