<?xml version="1.0" encoding="UTF-8"?>
<svg width="48px" height="48px" viewBox="0 0 48 48" version="1.1" xmlns="http://www.w3.org/2000/svg" xmlns:xlink="http://www.w3.org/1999/xlink">
    <title>切片</title>
    <g id="主页" stroke="none" stroke-width="1" fill="none" fill-rule="evenodd">
        <g id="首页-男看女-语音连麦中" transform="translate(-34.000000, -771.000000)" fill="#FFFFFF" fill-rule="nonzero">
            <g id="挂断Button" transform="translate(26.000000, 763.000000)">
                <g id="形状" transform="translate(8.000000, 8.000000)">
                    <path d="M24.6562273,28.2105263 C27.4520167,28.2105263 29.7088589,25.9536842 29.7088589,23.1578947 L29.7088589,13.0526316 C29.7088589,10.2568421 27.4520167,8 24.6562273,8 C21.8604378,8 19.6035957,10.2568421 19.6035957,13.0526316 L19.6035957,23.1578947 C19.6035957,25.9536842 21.8604378,28.2105263 24.6562273,28.2105263 Z M34.6099115,23.1578947 C33.7846483,23.1578947 33.094122,23.7642105 32.9593852,24.5894737 C32.2688589,28.5473684 28.8162273,31.5789474 24.6562273,31.5789474 C20.4962273,31.5789474 17.0435957,28.5473684 16.3530694,24.5894737 C16.2183325,23.7642105 15.5278062,23.1578947 14.7025431,23.1578947 C13.6751746,23.1578947 12.8667536,24.0673684 13.0183325,25.0778947 C13.8435957,30.1305263 17.885701,34.0884211 22.9720167,34.8126316 L22.9720167,38.3157895 C22.9720167,39.2421053 23.7299115,40 24.6562273,40 C25.5825431,40 26.3404378,39.2421053 26.3404378,38.3157895 L26.3404378,34.8126316 C31.4267536,34.0884211 35.4688589,30.1305263 36.294122,25.0778947 C36.4625431,24.0673684 35.6372799,23.1578947 34.6099115,23.1578947 Z"></path>
                </g>
            </g>
        </g>
    </g>
</svg>